<svg width="26" height="25" viewBox="0 0 26 25" fill="none" xmlns="http://www.w3.org/2000/svg">
<path d="M11.4335 0.863766C11.8077 -0.287873 13.4369 -0.287869 13.8111 0.863769L15.9339 7.39696C16.1012 7.91198 16.5812 8.26068 17.1227 8.26068H23.9921C25.203 8.26068 25.7065 9.8102 24.7268 10.522L19.1694 14.5597C18.7313 14.878 18.548 15.4422 18.7153 15.9572L20.8381 22.4904C21.2122 23.642 19.8941 24.5997 18.9145 23.888L13.357 19.8502C12.9189 19.5319 12.3257 19.5319 11.8876 19.8502L6.33012 23.888C5.35048 24.5997 4.03238 23.6421 4.40657 22.4904L6.52933 15.9572C6.69667 15.4422 6.51335 14.878 6.07524 14.5597L0.51778 10.522C-0.461863 9.8102 0.0416102 8.26068 1.25251 8.26068H8.12191C8.66345 8.26068 9.14339 7.91198 9.31073 7.39696L11.4335 0.863766Z" fill="#00BBA7"/>
</svg>
